<svg xmlns="http://www.w3.org/2000/svg" viewBox="0 0 1200 760"><rect width="1200" height="760" rx="42" fill="#030712"/><circle cx="920" cy="170" r="240" fill="#1d4ed8" opacity=".18"/><rect x="135" y="130" width="930" height="500" rx="38" fill="#07101f" stroke="#1e40af"/><circle cx="380" cy="330" r="78" fill="#60a5fa"/><circle cx="570" cy="295" r="70" fill="#93c5fd"/><circle cx="755" cy="335" r="78" fill="#3b82f6"/><path d="M260 575c20-115 95-165 190-165s170 50 190 165" fill="#0f172a" stroke="#60a5fa" stroke-width="10"/><path d="M450 575c20-112 92-158 180-158s160 46 180 158" fill="#111827" stroke="#93c5fd" stroke-width="10"/><path d="M640 575c20-115 95-165 190-165s170 50 190 165" fill="#0f172a" stroke="#3b82f6" stroke-width="10"/><rect x="235" y="185" width="250" height="90" rx="20" fill="#0f172a" stroke="#334155"/><path d="M270 220h160M270 250h115" stroke="#93c5fd" stroke-width="10" stroke-linecap="round"/><text x="120" y="710" fill="#ffffff" font-family="Arial" font-size="34" font-weight="800">Strategic Planning</text></svg>