<svg xmlns="http://www.w3.org/2000/svg" viewBox="0 0 1200 1500"><defs><linearGradient id="bg" x1="0" y1="0" x2="1" y2="1"><stop offset="0" stop-color="#081326"/><stop offset="1" stop-color="#02050a"/></linearGradient><linearGradient id="blue" x1="0" y1="0" x2="1" y2="1"><stop offset="0" stop-color="#60a5fa"/><stop offset="100%" stop-color="#2563eb"/></linearGradient><filter id="glow"><feGaussianBlur stdDeviation="12" result="b"/><feMerge><feMergeNode in="b"/><feMergeNode in="SourceGraphic"/></feMerge></filter></defs><rect width="1200" height="1500" rx="52" fill="url(#bg)"/><circle cx="930" cy="260" r="300" fill="#2563eb" opacity=".16"/><circle cx="260" cy="1220" r="360" fill="#3b82f6" opacity=".08"/><rect x="155" y="260" width="890" height="700" rx="44" fill="#07101f" stroke="#1e40af" stroke-opacity=".72"/><rect x="245" y="365" width="710" height="210" rx="30" fill="#0f172a" stroke="#334155"/><circle cx="340" cy="470" r="62" fill="url(#blue)" filter="url(#glow)"/><path d="M435 455h380M435 510h260" stroke="#93c5fd" stroke-width="18" stroke-linecap="round" opacity=".78"/><rect x="245" y="640" width="300" height="245" rx="30" fill="#0f172a" stroke="#334155"/><rect x="610" y="640" width="345" height="245" rx="30" fill="#0f172a" stroke="#334155"/><path d="M310 765h160M310 820h110M675 765h210M675 820h150" stroke="#93c5fd" stroke-width="16" stroke-linecap="round" opacity=".66"/><path d="M610 610c-70-55-185-58-270-8" fill="none" stroke="#3b82f6" stroke-width="8" stroke-dasharray="18 18" opacity=".55"/><path d="M710 610c70-55 160-58 230-8" fill="none" stroke="#3b82f6" stroke-width="8" stroke-dasharray="18 18" opacity=".55"/><text x="155" y="1220" fill="#e5e7eb" font-family="Arial,Helvetica,sans-serif" font-size="78" font-weight="800">Creators</text><text x="155" y="1310" fill="#93c5fd" font-family="Arial,Helvetica,sans-serif" font-size="30" letter-spacing="9">IP • AUDIENCE • SYSTEMS</text></svg>