<svg xmlns="http://www.w3.org/2000/svg" viewBox="0 0 1200 1500"><defs><linearGradient id="bg" x1="0" y1="0" x2="1" y2="1"><stop offset="0" stop-color="#081326"/><stop offset="1" stop-color="#02050a"/></linearGradient><linearGradient id="blue" x1="0" y1="0" x2="1" y2="1"><stop offset="0" stop-color="#60a5fa"/><stop offset="100%" stop-color="#2563eb"/></linearGradient></defs><rect width="1200" height="1500" rx="52" fill="url(#bg)"/><polyline points="200,1150 420,900 600,980 780,720 1000,600" fill="none" stroke="#3b82f6" stroke-width="14"/><circle cx="200" cy="1150" r="16" fill="#60a5fa"/><circle cx="420" cy="900" r="16" fill="#60a5fa"/><circle cx="600" cy="980" r="16" fill="#60a5fa"/><circle cx="780" cy="720" r="16" fill="#60a5fa"/><circle cx="1000" cy="600" r="16" fill="#60a5fa"/><rect x="180" y="300" width="840" height="550" rx="44" fill="#07101f" stroke="#1e40af"/><rect x="260" y="400" width="280" height="200" rx="28" fill="#0f172a"/><rect x="600" y="400" width="320" height="200" rx="28" fill="#0f172a"/><path d="M300 520h180M300 570h130M650 520h200M650 570h160" stroke="#93c5fd" stroke-width="18" stroke-linecap="round"/><text x="160" y="1220" fill="#e5e7eb" font-family="Arial,Helvetica,sans-serif" font-size="78" font-weight="800">Businesses</text><text x="160" y="1310" fill="#93c5fd" font-family="Arial,Helvetica,sans-serif" font-size="30" letter-spacing="9">OPERATIONS • SCALE • CAPITAL</text></svg>