<svg xmlns="http://www.w3.org/2000/svg" viewBox="0 0 1200 760"><defs><linearGradient id="bg" x1="0" y1="0" x2="1" y2="1"><stop offset="0" stop-color="#0b1730"/><stop offset="1" stop-color="#02050a"/></linearGradient><linearGradient id="blue" x1="0" y1="0" x2="1" y2="1"><stop offset="0" stop-color="#7dd3fc"/><stop offset="1" stop-color="#2563eb"/></linearGradient><filter id="glow"><feGaussianBlur stdDeviation="12" result="b"/><feMerge><feMergeNode in="b"/><feMergeNode in="SourceGraphic"/></feMerge></filter></defs><rect width="1200" height="760" rx="42" fill="url(#bg)"/><circle cx="950" cy="125" r="230" fill="#2563eb" opacity=".22"/><circle cx="250" cy="610" r="250" fill="#60a5fa" opacity=".08"/><rect x="110" y="95" width="980" height="530" rx="38" fill="#07101f" stroke="#2563eb" stroke-opacity=".85" stroke-width="4"/><path d="M600 155l300 105v175c0 150-115 245-300 298-185-53-300-148-300-298V260l300-105z" fill="#0f172a" stroke="#60a5fa" stroke-width="12" filter="url(#glow)"/><path d="M470 405l88 90 188-210" fill="none" stroke="#e0f2fe" stroke-width="34" stroke-linecap="round" stroke-linejoin="round"/><rect x="160" y="155" width="210" height="70" rx="18" fill="#0f172a" stroke="#334155"/><rect x="830" y="155" width="210" height="70" rx="18" fill="#0f172a" stroke="#334155"/><rect x="180" y="180" width="130" height="14" rx="7" fill="#93c5fd" opacity=".75"/><rect x="850" y="180" width="130" height="14" rx="7" fill="#93c5fd" opacity=".75"/><text x="120" y="700" fill="#e5e7eb" font-family="Arial,Helvetica,sans-serif" font-size="34" font-weight="800">Governance</text><text x="380" y="700" fill="#93c5fd" font-family="Arial,Helvetica,sans-serif" font-size="24" letter-spacing="7">STRUCTURE • OVERSIGHT • CONTROL</text></svg>