<svg xmlns="http://www.w3.org/2000/svg" viewBox="0 0 1200 1500"><defs><linearGradient id="bg" x1="0" y1="0" x2="1" y2="1"><stop offset="0" stop-color="#081326"/><stop offset="1" stop-color="#02050a"/></linearGradient><linearGradient id="blue" x1="0" y1="0" x2="1" y2="1"><stop offset="0" stop-color="#60a5fa"/><stop offset="1" stop-color="#2563eb"/></linearGradient></defs><rect width="1200" height="1500" rx="52" fill="url(#bg)"/><circle cx="940" cy="240" r="260" fill="#2563eb" opacity=".18"/><circle cx="220" cy="1190" r="320" fill="#3b82f6" opacity=".08"/><rect x="145" y="250" width="910" height="760" rx="42" fill="#07101f" stroke="#1e3a8a" stroke-opacity=".65"/><rect x="230" y="360" width="740" height="220" rx="28" fill="#0f172a" stroke="#334155"/><rect x="230" y="640" width="310" height="250" rx="28" fill="#0f172a" stroke="#334155"/><rect x="600" y="640" width="370" height="250" rx="28" fill="#0f172a" stroke="#334155"/><circle cx="365" cy="470" r="62" fill="url(#blue)"/><path d="M465 455h350M465 505h240" stroke="#93c5fd" stroke-width="18" stroke-linecap="round" opacity=".72"/><path d="M325 760h130M325 805h80M690 755h190M690 805h145" stroke="#93c5fd" stroke-width="16" stroke-linecap="round" opacity=".62"/><path d="M385 640v-60M600 580v60" stroke="#60a5fa" stroke-width="8" opacity=".7"/><text x="145" y="1240" fill="#e5e7eb" font-family="Arial,Helvetica,sans-serif" font-size="70" font-weight="800">Founders</text><text x="145" y="1320" fill="#93c5fd" font-family="Arial,Helvetica,sans-serif" font-size="28" letter-spacing="9">CLARITY TO EXECUTION</text></svg>