<svg xmlns="http://www.w3.org/2000/svg" viewBox="0 0 1200 760"><defs><linearGradient id="bg" x1="0" y1="0" x2="1" y2="1"><stop offset="0" stop-color="#081326"/><stop offset="1" stop-color="#02050a"/></linearGradient><linearGradient id="blue" x1="0" y1="0" x2="1" y2="1"><stop offset="0" stop-color="#60a5fa"/><stop offset="1" stop-color="#2563eb"/></linearGradient><filter id="glow"><feGaussianBlur stdDeviation="8" result="b"/><feMerge><feMergeNode in="b"/><feMergeNode in="SourceGraphic"/></feMerge></filter></defs><rect width="1200" height="760" rx="42" fill="url(#bg)"/><circle cx="970" cy="150" r="220" fill="#1d4ed8" opacity=".16"/><circle cx="220" cy="600" r="260" fill="#3b82f6" opacity=".09"/><rect x="105" y="110" width="990" height="540" rx="34" fill="#070b13" stroke="#1e3a8a" stroke-opacity=".55"/><rect x="150" y="155" width="360" height="240" rx="24" fill="#0f172a" stroke="#334155"/><rect x="690" y="155" width="360" height="240" rx="24" fill="#0f172a" stroke="#334155"/><rect x="420" y="450" width="360" height="130" rx="24" fill="#0f172a" stroke="#334155"/><path d="M510 275h180M600 395v55" stroke="#60a5fa" stroke-width="8" stroke-linecap="round" opacity=".75"/><path d="M330 395c70 70 470 70 540 0" fill="none" stroke="#3b82f6" stroke-width="6" stroke-dasharray="18 20" opacity=".45"/><circle cx="330" cy="275" r="58" fill="url(#blue)" filter="url(#glow)"/><circle cx="870" cy="275" r="58" fill="url(#blue)" filter="url(#glow)"/><circle cx="600" cy="515" r="46" fill="url(#blue)" filter="url(#glow)"/><text x="150" y="705" fill="#93c5fd" font-family="Arial,Helvetica,sans-serif" font-size="24" letter-spacing="8">STRATEGIC PLANNING</text><text x="150" y="235" fill="#e5e7eb" font-family="Arial,Helvetica,sans-serif" font-size="34" font-weight="700">Vision</text><text x="720" y="235" fill="#e5e7eb" font-family="Arial,Helvetica,sans-serif" font-size="34" font-weight="700">Model</text><text x="500" y="530" fill="#e5e7eb" font-family="Arial,Helvetica,sans-serif" font-size="34" font-weight="700">Plan</text></svg>